# xmcd
#
# Track frame offsets: 
#        150
#        5614
#        23180
#        41053
#        62335
#        78186
#        102432
#        117401
#        136476
#        154029
#        171860
#        188304
#        203486
#
# Disc length: 2906 seconds
#
# Revision: 1
# Processed by: cddbd v1.5.2PL0 Copyright (c) Steve Scherf et al.
# Submitted via: ExactAudioCopy v1.0b3
#
DISCID=9c0b580d
DTITLE=Dwele - Greater Than One
DYEAR=2012
DGENRE=Soul
TTITLE0=Greater Than One Less Than Three
TTITLE1=Going Leaving
TTITLE2=Takes22Tango
TTITLE3=What You Gotta Do (feat. Raheem DeVaughn)
TTITLE4=What Profit
TTITLE5=Obey
TTITLE6=This Love
TTITLE7=Must Be (feat. J. Tajt, L'Renee, and Black Milk)
TTITLE8=Swank (feat. Monica Blaire)
TTITLE9=Patrick Ronald (feat. Monica Blaire)
TTITLE10=Special
TTITLE11=Love Triangle
TTITLE12=Frankly My Dear (I'm Bennett I Ain't Innit)
EXTD=
EXTT0=
EXTT1=
EXTT2=
EXTT3=
EXTT4=
EXTT5=
EXTT6=
EXTT7=
EXTT8=
EXTT9=
EXTT10=
EXTT11=
EXTT12=
PLAYORDER=
